<svg width="18" height="21" viewBox="0 0 18 21" fill="none" xmlns="http://www.w3.org/2000/svg">
<path d="M17 5.8204H14.6245C14.625 5.79359 14.6253 5.76682 14.6253 5.7401C14.6253 2.99165 12.0757 0.8 8.99965 0.8C5.92362 0.8 3.37473 2.99168 3.37473 5.7401C3.37473 5.76682 3.375 5.79359 3.37554 5.8204H1H0.8V6.0204V20V20.2H1H17H17.2V20V6.0204V5.8204H17ZM5.03001 5.7401C5.03001 3.86604 6.78464 2.29682 8.99965 2.29682C11.2147 2.29682 12.97 3.86608 12.97 5.7401C12.97 5.76675 12.9696 5.79353 12.9689 5.8204H5.03112C5.03038 5.7936 5.03001 5.76682 5.03001 5.7401ZM2.45528 18.7032V7.31722H15.5447V18.7032H2.45528Z" fill="#0A0909" stroke="#0A0909" stroke-width="0.4"/>
</svg>
